<svg width="57" height="158" viewBox="0 0 57 158" fill="none" xmlns="http://www.w3.org/2000/svg">
<g filter="url(#filter0_d_3_43)">
<path d="M5 0H52V147H5V0Z" fill="#DBD2D8"/>
</g>
<path d="M38 134.303H22.2627V129.394C22.2627 127.31 22.5671 125.756 23.1758 124.731C23.7845 123.707 24.7979 123.195 26.2158 123.195C26.445 123.195 26.6706 123.21 26.8926 123.238C27.1146 123.267 27.3688 123.331 27.6553 123.432C27.9346 123.532 28.1888 123.664 28.418 123.829C28.6471 123.994 28.8727 124.223 29.0947 124.517C29.3096 124.81 29.4779 125.154 29.5996 125.548C29.8359 124.574 30.2907 123.829 30.9639 123.313C31.6299 122.798 32.4535 122.54 33.4346 122.54C34.917 122.54 36.0485 123.066 36.8291 124.119C37.6097 125.165 38 126.615 38 128.47V134.303ZM35.8945 131.392V128.867C35.8945 126.633 35.0208 125.516 33.2734 125.516C32.3926 125.516 31.7588 125.795 31.3721 126.354C30.9854 126.912 30.792 127.775 30.792 128.942V131.392H35.8945ZM28.7617 131.392V128.899C28.7617 126.973 28.0277 126.01 26.5596 126.01C25.736 126.01 25.1702 126.289 24.8623 126.848C24.5544 127.399 24.4004 128.28 24.4004 129.49V131.392H28.7617ZM38.2256 117.126C38.2256 118.222 37.9248 119.11 37.3232 119.79C36.7145 120.463 35.8408 120.8 34.7021 120.8C33.4775 120.8 32.5716 120.399 31.9844 119.597C31.39 118.795 31.014 117.584 30.8564 115.966C30.8278 115.744 30.7992 115.504 30.7705 115.246C30.7419 114.988 30.7132 114.698 30.6846 114.376C30.6559 114.054 30.6309 113.799 30.6094 113.613H29.9863C29.2702 113.613 28.751 113.778 28.4287 114.107C28.0993 114.437 27.9346 114.938 27.9346 115.611C27.9346 116.571 28.2031 117.756 28.7402 119.167C28.7188 119.174 28.3929 119.292 27.7627 119.521C27.1325 119.751 26.8102 119.869 26.7959 119.876C26.2015 118.487 25.9043 116.983 25.9043 115.364C25.9043 113.774 26.2516 112.618 26.9463 111.895C27.6338 111.171 28.751 110.81 30.2979 110.81H38V112.894C37.9714 112.901 37.7314 112.979 37.2803 113.13C36.8291 113.28 36.5892 113.355 36.5605 113.355C37.1335 113.943 37.556 114.519 37.8281 115.085C38.0931 115.644 38.2256 116.324 38.2256 117.126ZM36.2275 116.363C36.2275 115.712 36.0736 115.146 35.7656 114.666C35.4505 114.179 35.071 113.832 34.627 113.624H32.3496C32.3496 113.646 32.3639 113.835 32.3926 114.193C32.4212 114.544 32.4355 114.734 32.4355 114.763C32.5358 115.901 32.7507 116.736 33.0801 117.266C33.4095 117.796 33.9395 118.061 34.6699 118.061C35.1712 118.061 35.5579 117.914 35.8301 117.62C36.0951 117.326 36.2275 116.908 36.2275 116.363ZM38.1611 103.258C38.1611 104.06 38.068 104.729 37.8818 105.267C37.6885 105.797 37.3877 106.212 36.9795 106.513C36.5713 106.813 36.0915 107.028 35.54 107.157C34.9814 107.279 34.2939 107.34 33.4775 107.34H27.9023V109.273L26.377 109.166L26.1943 107.146L22.9932 106.244L22.9824 104.525H26.1943V101.593H27.9023V104.525H33.5312C34.4264 104.525 35.0638 104.396 35.4434 104.139C35.8229 103.881 36.0127 103.405 36.0127 102.71C36.0127 102.302 35.9769 101.865 35.9053 101.399L37.9248 101.324C37.9248 101.339 37.9427 101.428 37.9785 101.593C38.0072 101.75 38.0322 101.904 38.0537 102.055C38.0824 102.198 38.1074 102.384 38.1289 102.613C38.1504 102.842 38.1611 103.057 38.1611 103.258ZM38.2256 94.2773C38.2256 96.082 37.6885 97.4893 36.6143 98.499C35.54 99.5016 34.0039 100.003 32.0059 100.003C30.0723 100.003 28.5719 99.4766 27.5049 98.4238C26.4378 97.3639 25.9043 95.971 25.9043 94.2451C25.9043 92.863 26.2015 91.6956 26.7959 90.7432L28.8047 91.4092C28.2962 92.3831 28.042 93.2891 28.042 94.127C28.042 95.0794 28.3822 95.8314 29.0625 96.3828C29.7428 96.9271 30.7347 97.1992 32.0381 97.1992C33.3558 97.1992 34.3584 96.9307 35.0459 96.3936C35.7334 95.8493 36.0771 95.083 36.0771 94.0947C36.0771 93.0635 35.7728 92.0716 35.1641 91.1191L37.3018 90.8506C37.6312 91.3447 37.8675 91.8568 38.0107 92.3867C38.154 92.9167 38.2256 93.5469 38.2256 94.2773ZM38 88.6162H21.8438L21.6611 85.8018H25.0664C25.2311 85.8018 25.6895 85.8125 26.4414 85.834C27.1862 85.8555 27.5658 85.8662 27.5801 85.8662C26.4629 84.9281 25.9043 83.6676 25.9043 82.085C25.9043 80.7673 26.2839 79.7467 27.043 79.0234C27.7949 78.293 28.9551 77.9277 30.5234 77.9277H38V80.7422H30.835C29.8682 80.7422 29.1592 80.8962 28.708 81.2041C28.2568 81.512 28.0313 82.0348 28.0313 82.7725C28.0313 83.4027 28.1924 83.9613 28.5146 84.4482C28.8298 84.9352 29.238 85.3005 29.7393 85.5439C30.3981 85.7158 31.2575 85.8018 32.3174 85.8018H38V88.6162ZM38 69.0547H22.2627V65.9609C23.1364 65.4023 24.8981 64.2673 27.5479 62.5557C30.1976 60.8441 31.8089 59.8021 32.3818 59.4297C32.5465 59.3223 32.8258 59.1396 33.2197 58.8818C33.6064 58.6169 33.8822 58.4307 34.0469 58.3232C31.5905 58.3734 30.3158 58.3984 30.2227 58.3984H22.2627V55.7451H38V58.8818L26.9355 65.9824L26.0869 66.498C27.9775 66.4408 29.306 66.4121 30.0723 66.4121H38V69.0547ZM36.0879 47.4844C36.0879 46.5319 35.7406 45.8158 35.0459 45.3359C34.3512 44.8561 33.3558 44.6162 32.0596 44.6162C30.749 44.6162 29.75 44.8561 29.0625 45.3359C28.375 45.8158 28.0313 46.5391 28.0313 47.5059C28.0313 48.4583 28.3786 49.1781 29.0732 49.665C29.7607 50.1449 30.7598 50.3848 32.0703 50.3848C33.3594 50.3848 34.3512 50.1413 35.0459 49.6543C35.7406 49.1673 36.0879 48.444 36.0879 47.4844ZM38.2256 47.5596C38.2256 49.307 37.6598 50.682 36.5283 51.6846C35.3968 52.6872 33.9072 53.1885 32.0596 53.1885C30.1546 53.1885 28.6543 52.6872 27.5586 51.6846C26.4557 50.682 25.9043 49.2676 25.9043 47.4414C25.9043 45.6797 26.4665 44.3011 27.5908 43.3057C28.708 42.3031 30.1976 41.8018 32.0596 41.8018C33.943 41.8018 35.4434 42.3066 36.5605 43.3164C37.6706 44.3262 38.2256 45.7406 38.2256 47.5596ZM38 39.4922H26.1943V37.1289L27.999 36.7637C26.7601 35.9902 26.1406 34.8695 26.1406 33.4014C26.1406 33.0934 26.1549 32.8428 26.1836 32.6494L28.5361 32.6924C28.4932 32.9788 28.4717 33.276 28.4717 33.584C28.4717 34.6224 28.7474 35.3994 29.2988 35.915C29.8503 36.4235 30.6165 36.6777 31.5977 36.6777H38V39.4922ZM38 30.9307H26.1943V28.6533L27.6982 28.3311C27.5192 28.1878 27.3617 28.0518 27.2256 27.9229C27.0824 27.7868 26.9248 27.6042 26.7529 27.375C26.5739 27.1387 26.4271 26.8916 26.3125 26.6338C26.1979 26.3688 26.1012 26.0465 26.0225 25.667C25.9437 25.2803 25.9043 24.8685 25.9043 24.4316C25.9043 23.4935 26.0941 22.7451 26.4736 22.1865C26.8532 21.6208 27.2972 21.2233 27.8057 20.9941C27.1969 20.5716 26.7279 20.0238 26.3984 19.3506C26.069 18.6774 25.9043 17.929 25.9043 17.1055C25.9043 15.752 26.2874 14.7601 27.0537 14.1299C27.82 13.4925 28.9551 13.1738 30.459 13.1738H38V15.999H31.2969C30.1439 15.999 29.3132 16.1279 28.8047 16.3857C28.2891 16.6364 28.0313 17.1198 28.0313 17.8359C28.0313 18.9316 28.5254 19.7194 29.5137 20.1992C29.9505 20.3997 30.4769 20.5358 31.0928 20.6074H38V23.4219H31.168C30.1152 23.4219 29.3311 23.5615 28.8154 23.8408C28.2998 24.1201 28.042 24.625 28.042 25.3555C28.042 25.9499 28.1924 26.4619 28.4932 26.8916C28.7939 27.3213 29.1878 27.6471 29.6748 27.8691C30.3981 28.0339 31.2646 28.1162 32.2744 28.1162H38V30.9307Z" fill="#477099"/>
<defs>
<filter id="filter0_d_3_43" x="0" y="0" width="57" height="158" filterUnits="userSpaceOnUse" color-interpolation-filters="sRGB">
<feFlood flood-opacity="0" result="BackgroundImageFix"/>
<feColorMatrix in="SourceAlpha" type="matrix" values="0 0 0 0 0 0 0 0 0 0 0 0 0 0 0 0 0 0 127 0" result="hardAlpha"/>
<feOffset dy="6"/>
<feGaussianBlur stdDeviation="2.5"/>
<feComposite in2="hardAlpha" operator="out"/>
<feColorMatrix type="matrix" values="0 0 0 0 0.839216 0 0 0 0 0.886275 0 0 0 0 0.917647 0 0 0 1 0"/>
<feBlend mode="normal" in2="BackgroundImageFix" result="effect1_dropShadow_3_43"/>
<feBlend mode="normal" in="SourceGraphic" in2="effect1_dropShadow_3_43" result="shape"/>
</filter>
</defs>
</svg>
