<svg width="57" height="158" viewBox="0 0 57 158" fill="none" xmlns="http://www.w3.org/2000/svg">
<g filter="url(#filter0_d_3_37)">
<path d="M5 0H52V147H5V0Z" fill="#C5DEF2"/>
</g>
<path d="M37.2256 92.4385C37.2256 94.7373 36.5023 96.5599 35.0557 97.9062C33.609 99.2526 31.611 99.9258 29.0615 99.9258C26.641 99.9258 24.7002 99.224 23.2393 97.8203C21.7712 96.4095 21.0371 94.5654 21.0371 92.2881C21.0371 90.4476 21.4632 88.89 22.3154 87.6152L24.5176 88.5283C23.7656 89.7529 23.3896 90.9847 23.3896 92.2236C23.3896 93.6702 23.9124 94.8161 24.958 95.6611C25.9964 96.499 27.3929 96.918 29.1475 96.918C30.9665 96.918 32.3737 96.5133 33.3691 95.7041C34.3646 94.8877 34.8623 93.7275 34.8623 92.2236C34.8623 90.9059 34.5329 89.599 33.874 88.3027L36.1514 87.916C36.8675 89.1191 37.2256 90.6266 37.2256 92.4385ZM35.0879 80.4395C35.0879 79.487 34.7406 78.7708 34.0459 78.291C33.3512 77.8112 32.3558 77.5713 31.0596 77.5713C29.749 77.5713 28.75 77.8112 28.0625 78.291C27.375 78.7708 27.0312 79.4941 27.0312 80.4609C27.0312 81.4134 27.3786 82.1331 28.0732 82.6201C28.7607 83.0999 29.7598 83.3398 31.0703 83.3398C32.3594 83.3398 33.3512 83.0964 34.0459 82.6094C34.7406 82.1224 35.0879 81.3991 35.0879 80.4395ZM37.2256 80.5146C37.2256 82.262 36.6598 83.637 35.5283 84.6396C34.3968 85.6423 32.9072 86.1436 31.0596 86.1436C29.1546 86.1436 27.6543 85.6423 26.5586 84.6396C25.4557 83.637 24.9043 82.2227 24.9043 80.3965C24.9043 78.6348 25.4665 77.2562 26.5908 76.2607C27.708 75.2581 29.1976 74.7568 31.0596 74.7568C32.943 74.7568 34.4434 75.2617 35.5605 76.2715C36.6706 77.2812 37.2256 78.6956 37.2256 80.5146ZM37 72.458H25.1943V70.1914L26.6875 69.8799C25.4987 68.6768 24.9043 67.3411 24.9043 65.873C24.9043 64.498 25.3018 63.4704 26.0967 62.79C26.8844 62.1025 28.0303 61.7588 29.5342 61.7588H37V64.584H29.8779C28.9255 64.5911 28.2129 64.7451 27.7402 65.0459C27.2676 65.3467 27.0313 65.8874 27.0313 66.668C27.0313 67.2767 27.1888 67.8353 27.5039 68.3438C27.8118 68.8451 28.2021 69.2103 28.6748 69.4395C29.2334 69.5755 30.0928 69.6436 31.2529 69.6436H37V72.458ZM37 55.8506L25.1943 60.5557V57.5693C25.5166 57.4548 26.5192 57.0931 28.2021 56.4844C29.8779 55.8685 31.0202 55.4603 31.6289 55.2598C32.8177 54.8516 33.7165 54.5579 34.3252 54.3789C34.318 54.3789 34.0853 54.318 33.627 54.1963C33.1686 54.0745 32.7389 53.96 32.3379 53.8525C31.9297 53.738 31.6826 53.6663 31.5967 53.6377C31.5824 53.6305 30.5941 53.3047 28.6318 52.6602C26.6696 52.0085 25.5238 51.6217 25.1943 51.5V48.5352L37 53.0039V55.8506Z" fill="#477099"/>
<defs>
<filter id="filter0_d_3_37" x="0" y="0" width="57" height="158" filterUnits="userSpaceOnUse" color-interpolation-filters="sRGB">
<feFlood flood-opacity="0" result="BackgroundImageFix"/>
<feColorMatrix in="SourceAlpha" type="matrix" values="0 0 0 0 0 0 0 0 0 0 0 0 0 0 0 0 0 0 127 0" result="hardAlpha"/>
<feOffset dy="6"/>
<feGaussianBlur stdDeviation="2.5"/>
<feComposite in2="hardAlpha" operator="out"/>
<feColorMatrix type="matrix" values="0 0 0 0 0.839216 0 0 0 0 0.886275 0 0 0 0 0.917647 0 0 0 1 0"/>
<feBlend mode="normal" in2="BackgroundImageFix" result="effect1_dropShadow_3_37"/>
<feBlend mode="normal" in="SourceGraphic" in2="effect1_dropShadow_3_37" result="shape"/>
</filter>
</defs>
</svg>
