<svg width="57" height="158" viewBox="0 0 57 158" fill="none" xmlns="http://www.w3.org/2000/svg">
<g filter="url(#filter0_d_3_36)">
<path d="M5 0H52V147H5V0Z" fill="#F9DCC4"/>
</g>
<path d="M34.6689 100.381V98.2969C34.6689 96.4993 34.1999 95.1315 33.2617 94.1934C32.3164 93.2552 30.9414 92.7861 29.1367 92.7861C27.2031 92.7861 25.7995 93.2695 24.9258 94.2363C24.0449 95.2031 23.6045 96.6605 23.6045 98.6084V100.381H34.6689ZM37 103.292H21.2627V98.7373C21.2627 97.3623 21.4202 96.1305 21.7354 95.042C22.0505 93.9535 22.5267 93.0189 23.1641 92.2383C23.7943 91.4505 24.6107 90.849 25.6133 90.4336C26.6087 90.0111 27.7617 89.7998 29.0723 89.7998C31.6146 89.7998 33.5732 90.5661 34.9482 92.0986C36.3161 93.6312 37 95.7546 37 98.4688V103.292ZM37.2256 81.8506C37.2256 83.7484 36.6813 85.2272 35.5928 86.2871C34.4971 87.3398 32.986 87.8662 31.0596 87.8662C29.1833 87.8662 27.6901 87.3685 26.5801 86.373C25.4701 85.3776 24.9115 84.0205 24.9043 82.3018C24.9043 80.6761 25.4128 79.4157 26.4297 78.5205C27.4466 77.6182 28.7965 77.167 30.4795 77.167C30.6012 77.167 30.7982 77.1706 31.0703 77.1777C31.3424 77.1777 31.543 77.1777 31.6719 77.1777V85.0303C32.7747 85.0016 33.6305 84.7008 34.2393 84.1279C34.8408 83.5479 35.1416 82.7529 35.1416 81.7432C35.1416 80.4541 34.805 79.2152 34.1318 78.0264L36.1299 77.6289C36.8604 78.8105 37.2256 80.2178 37.2256 81.8506ZM29.8994 84.9766L29.8994 79.8203C28.9398 79.8203 28.2021 80.0387 27.6865 80.4756C27.1709 80.9124 26.9131 81.5176 26.9131 82.291C26.9131 83.0143 27.1637 83.6266 27.665 84.1279C28.1663 84.6221 28.9111 84.9049 29.8994 84.9766ZM37 74.8682H25.1943V72.6016L26.6875 72.29C25.4987 71.0869 24.9043 69.7513 24.9043 68.2832C24.9043 66.9082 25.3018 65.8805 26.0967 65.2002C26.8844 64.5127 28.0303 64.1689 29.5342 64.1689H37V66.9941H29.8779C28.9255 67.0013 28.2129 67.1553 27.7402 67.4561C27.2676 67.7568 27.0313 68.2975 27.0313 69.0781C27.0313 69.6868 27.1888 70.2454 27.5039 70.7539C27.8118 71.2552 28.2021 71.6204 28.6748 71.8496C29.2334 71.9857 30.0928 72.0537 31.2529 72.0537H37V74.8682ZM37.2148 57.627C37.2148 59.3672 36.9176 60.7601 36.3232 61.8057L34.207 61.5156C34.4648 61.043 34.6976 60.4414 34.9053 59.7109C35.1058 58.9805 35.2061 58.3145 35.2061 57.7129C35.2061 57.0898 35.0915 56.6064 34.8623 56.2627C34.626 55.9118 34.2822 55.7327 33.8311 55.7256C33.4229 55.7256 33.1006 55.8903 32.8643 56.2197C32.6279 56.542 32.3343 57.1615 31.9834 58.0781C31.8688 58.3932 31.7936 58.5973 31.7578 58.6904C31.3353 59.779 30.8662 60.5632 30.3506 61.043C29.8278 61.5228 29.1224 61.7627 28.2344 61.7627C27.1602 61.7627 26.3366 61.376 25.7637 60.6025C25.1908 59.8219 24.9043 58.737 24.9043 57.3477C24.9043 55.8438 25.1872 54.5225 25.7529 53.3838L27.6973 54.082C27.1745 55.2064 26.9131 56.277 26.9131 57.2939C26.9131 57.8597 27.0098 58.3037 27.2031 58.626C27.3893 58.9411 27.6758 59.0986 28.0625 59.0986C28.4277 59.0986 28.7142 58.9447 28.9219 58.6367C29.1224 58.3288 29.3874 57.7272 29.7168 56.832C29.724 56.8034 29.7562 56.7103 29.8135 56.5527C29.8708 56.3952 29.9173 56.2734 29.9531 56.1875C30.347 55.1061 30.8197 54.3112 31.3711 53.8027C31.9154 53.2943 32.6279 53.04 33.5088 53.04C34.6904 53.0472 35.6035 53.4482 36.248 54.2432C36.8926 55.0381 37.2148 56.166 37.2148 57.627ZM37.2256 45.3486C37.2256 47.2464 36.6813 48.7253 35.5928 49.7852C34.4971 50.8379 32.986 51.3643 31.0596 51.3643C29.1833 51.3643 27.6901 50.8665 26.5801 49.8711C25.4701 48.8757 24.9115 47.5186 24.9043 45.7998C24.9043 44.1742 25.4128 42.9137 26.4297 42.0186C27.4466 41.1162 28.7965 40.665 30.4795 40.665C30.6012 40.665 30.7982 40.6686 31.0703 40.6758C31.3424 40.6758 31.543 40.6758 31.6719 40.6758V48.5283C32.7747 48.4997 33.6305 48.1989 34.2393 47.626C34.8408 47.0459 35.1416 46.251 35.1416 45.2412C35.1416 43.9521 34.805 42.7132 34.1318 41.5244L36.1299 41.127C36.8604 42.3086 37.2256 43.7158 37.2256 45.3486ZM29.8994 48.4746V43.3184C28.9398 43.3184 28.2021 43.5368 27.6865 43.9736C27.1709 44.4105 26.9131 45.0156 26.9131 45.7891C26.9131 46.5124 27.1637 47.1247 27.665 47.626C28.1663 48.1201 28.9111 48.403 29.8994 48.4746Z" fill="#477099"/>
<defs>
<filter id="filter0_d_3_36" x="0" y="0" width="57" height="158" filterUnits="userSpaceOnUse" color-interpolation-filters="sRGB">
<feFlood flood-opacity="0" result="BackgroundImageFix"/>
<feColorMatrix in="SourceAlpha" type="matrix" values="0 0 0 0 0 0 0 0 0 0 0 0 0 0 0 0 0 0 127 0" result="hardAlpha"/>
<feOffset dy="6"/>
<feGaussianBlur stdDeviation="2.5"/>
<feComposite in2="hardAlpha" operator="out"/>
<feColorMatrix type="matrix" values="0 0 0 0 0.839216 0 0 0 0 0.886275 0 0 0 0 0.917647 0 0 0 1 0"/>
<feBlend mode="normal" in2="BackgroundImageFix" result="effect1_dropShadow_3_36"/>
<feBlend mode="normal" in="SourceGraphic" in2="effect1_dropShadow_3_36" result="shape"/>
</filter>
</defs>
</svg>
