<svg width="57" height="158" viewBox="0 0 57 158" fill="none" xmlns="http://www.w3.org/2000/svg">
<g filter="url(#filter0_d_3_39)">
<path d="M5 0H52V147H5V0Z" fill="#FEC6BB"/>
</g>
<path d="M37 131.303H21.2627V128.392H34.6797V121.807L37 121.893V131.303ZM37.2256 114.599C37.2256 116.496 36.6813 117.975 35.5928 119.035C34.4971 120.088 32.986 120.614 31.0596 120.614C29.1833 120.614 27.6901 120.117 26.5801 119.121C25.4701 118.126 24.9115 116.769 24.9043 115.05C24.9043 113.424 25.4128 112.164 26.4297 111.269C27.4466 110.366 28.7965 109.915 30.4795 109.915C30.6012 109.915 30.7982 109.919 31.0703 109.926C31.3424 109.926 31.543 109.926 31.6719 109.926V117.778C32.7747 117.75 33.6305 117.449 34.2393 116.876C34.8408 116.296 35.1416 115.501 35.1416 114.491C35.1416 113.202 34.805 111.963 34.1318 110.774L36.1299 110.377C36.8604 111.559 37.2256 112.966 37.2256 114.599ZM29.8994 117.725V112.568C28.9398 112.568 28.2021 112.787 27.6865 113.224C27.1709 113.66 26.9131 114.266 26.9131 115.039C26.9131 115.762 27.1637 116.375 27.665 116.876C28.1663 117.37 28.9111 117.653 29.8994 117.725ZM37.2256 104.544C37.2256 105.64 36.9248 106.528 36.3232 107.208C35.7145 107.881 34.8408 108.218 33.7021 108.218C32.4775 108.218 31.5716 107.817 30.9844 107.015C30.39 106.213 30.014 105.002 29.8564 103.384C29.8278 103.162 29.7992 102.922 29.7705 102.664C29.7419 102.406 29.7132 102.116 29.6846 101.794C29.6559 101.472 29.6309 101.217 29.6094 101.031H28.9863C28.2702 101.031 27.751 101.196 27.4287 101.525C27.0993 101.855 26.9346 102.356 26.9346 103.029C26.9346 103.989 27.2031 105.174 27.7402 106.585C27.7188 106.592 27.3929 106.71 26.7627 106.939C26.1325 107.169 25.8102 107.287 25.7959 107.294C25.2015 105.905 24.9043 104.401 24.9043 102.782C24.9043 101.192 25.2516 100.036 25.9463 99.3125C26.6338 98.5892 27.751 98.2275 29.2979 98.2275H37V100.312C36.9714 100.319 36.7314 100.397 36.2803 100.548C35.8291 100.698 35.5892 100.773 35.5605 100.773C36.1335 101.361 36.556 101.937 36.8281 102.503C37.0931 103.062 37.2256 103.742 37.2256 104.544ZM35.2275 103.781C35.2275 103.13 35.0736 102.564 34.7656 102.084C34.4505 101.597 34.071 101.25 33.627 101.042H31.3496C31.3496 101.063 31.3639 101.253 31.3926 101.611C31.4212 101.962 31.4355 102.152 31.4355 102.181C31.5358 103.319 31.7507 104.154 32.0801 104.684C32.4095 105.214 32.9395 105.479 33.6699 105.479C34.1712 105.479 34.5579 105.332 34.8301 105.038C35.0951 104.744 35.2275 104.326 35.2275 103.781ZM37 95.3916H20.8438L20.6611 92.5771H27.9121L30.2969 92.6416C30.2897 92.6344 30.2181 92.5628 30.082 92.4268C29.946 92.2835 29.8708 92.2048 29.8564 92.1904C29.391 91.7965 28.9111 91.3704 28.417 90.9121C27.9229 90.4466 27.3177 89.863 26.6016 89.1611C25.8854 88.4521 25.4163 87.9902 25.1943 87.7754V84.4238L30.2217 89.2793L37 84.1123V87.5176L31.6396 91.4062L32.5635 92.5771H37V95.3916ZM41.9736 82.1572C41.9736 82.6156 41.945 83.1025 41.8877 83.6182L39.707 83.7578C39.7428 83.4284 39.7607 83.0094 39.7607 82.501C39.7607 81.8493 39.6318 81.3265 39.374 80.9326C39.1162 80.5387 38.6579 80.2129 37.999 79.9551C37.9274 79.9264 37.5228 79.7832 36.7852 79.5254L25.1943 84.2734V81.2656L33.7559 78.1611C32.9036 77.932 31.321 77.4199 29.0078 76.625C26.6947 75.8229 25.4235 75.3825 25.1943 75.3037V72.2959C33.8454 75.5687 38.2067 77.2194 38.2783 77.248C39.6032 77.7565 40.5485 78.3975 41.1143 79.1709C41.6872 79.9443 41.9736 80.9398 41.9736 82.1572ZM37 70.5986H21.2197V64.7656C21.2197 63.9707 21.2555 63.2832 21.3271 62.7031C21.3988 62.1159 21.5313 61.5609 21.7246 61.0381C21.9108 60.5081 22.165 60.082 22.4873 59.7598C22.8096 59.4303 23.2321 59.1725 23.7549 58.9863C24.2705 58.793 24.8828 58.6963 25.5918 58.6963C27.6829 58.6963 29.0579 59.6452 29.7168 61.543C30.1536 61.1562 30.9629 60.6764 32.1445 60.1035L37 57.7617L37 60.9414L32.8857 62.7783C31.4105 63.473 30.5368 63.9027 30.2646 64.0674C30.2575 64.1891 30.2539 64.5938 30.2539 65.2812L30.2324 67.7197H37V70.5986ZM28.1484 64.5078C28.1484 63.3906 27.9515 62.5885 27.5576 62.1016C27.1566 61.6146 26.5156 61.3711 25.6348 61.3711C24.8613 61.3711 24.292 61.6182 23.9268 62.1123C23.5615 62.6064 23.3789 63.362 23.3789 64.3789V67.7197H28.1377C28.1377 67.6123 28.1413 67.0788 28.1484 66.1191C28.1484 65.1595 28.1484 64.6224 28.1484 64.5078ZM37.2256 50.3604C37.2256 52.2581 36.6813 53.737 35.5928 54.7969C34.4971 55.8496 32.986 56.376 31.0596 56.376C29.1833 56.376 27.6901 55.8783 26.5801 54.8828C25.4701 53.8874 24.9115 52.5303 24.9043 50.8115C24.9043 49.1859 25.4128 47.9255 26.4297 47.0303C27.4466 46.1279 28.7965 45.6768 30.4795 45.6768C30.6012 45.6768 30.7982 45.6803 31.0703 45.6875C31.3424 45.6875 31.543 45.6875 31.6719 45.6875V53.54C32.7747 53.5114 33.6305 53.2106 34.2393 52.6377C34.8408 52.0576 35.1416 51.2627 35.1416 50.2529C35.1416 48.9639 34.805 47.7249 34.1318 46.5361L36.1299 46.1387C36.8604 47.3203 37.2256 48.7275 37.2256 50.3604ZM29.8994 53.4863V48.3301C28.9398 48.3301 28.2021 48.5485 27.6865 48.9854C27.1709 49.4222 26.9131 50.0273 26.9131 50.8008C26.9131 51.5241 27.1637 52.1364 27.665 52.6377C28.1663 53.1318 28.9111 53.4147 29.8994 53.4863ZM37 43.1094H21.2627V40.1982H34.6797V33.6133L37 33.6992V43.1094ZM37.2256 25.4492C37.2256 27.5117 36.7135 29.0765 35.6895 30.1436C34.6582 31.2106 33.208 31.7441 31.3389 31.7441H21.2627V28.8223H31.0918C32.4023 28.8223 33.3584 28.5573 33.96 28.0273C34.5615 27.4902 34.8623 26.613 34.8623 25.3955C34.8623 24.1995 34.5615 23.333 33.96 22.7959C33.3512 22.2588 32.3916 21.9902 31.0811 21.9902H21.2627V19.0791H31.3604C33.2152 19.0791 34.6582 19.6234 35.6895 20.7119C36.7135 21.8005 37.2256 23.3796 37.2256 25.4492Z" fill="#477099"/>
<defs>
<filter id="filter0_d_3_39" x="0" y="0" width="57" height="158" filterUnits="userSpaceOnUse" color-interpolation-filters="sRGB">
<feFlood flood-opacity="0" result="BackgroundImageFix"/>
<feColorMatrix in="SourceAlpha" type="matrix" values="0 0 0 0 0 0 0 0 0 0 0 0 0 0 0 0 0 0 127 0" result="hardAlpha"/>
<feOffset dy="6"/>
<feGaussianBlur stdDeviation="2.5"/>
<feComposite in2="hardAlpha" operator="out"/>
<feColorMatrix type="matrix" values="0 0 0 0 0.839216 0 0 0 0 0.886275 0 0 0 0 0.917647 0 0 0 1 0"/>
<feBlend mode="normal" in2="BackgroundImageFix" result="effect1_dropShadow_3_39"/>
<feBlend mode="normal" in="SourceGraphic" in2="effect1_dropShadow_3_39" result="shape"/>
</filter>
</defs>
</svg>
