<svg width="43" height="127" viewBox="0 0 43 127" fill="none" xmlns="http://www.w3.org/2000/svg">
<g filter="url(#filter0_d_3_35)">
<path d="M5 0H38V116H5V0Z" fill="#CED9FD"/>
</g>
<path d="M29 87.3027H13.2627V84.209C14.1364 83.6504 15.8981 82.5153 18.5479 80.8037C21.1976 79.0921 22.8089 78.0501 23.3818 77.6777C23.5465 77.5703 23.8258 77.3877 24.2197 77.1299C24.6064 76.8649 24.8822 76.6787 25.0469 76.5713C22.5905 76.6214 21.3158 76.6465 21.2227 76.6465H13.2627V73.9932H29L29 77.1299L17.9355 84.2305L17.0869 84.7461C18.9775 84.6888 20.306 84.6602 21.0723 84.6602H29V87.3027ZM27.0879 65.7324C27.0879 64.7799 26.7406 64.0638 26.0459 63.584C25.3512 63.1042 24.3558 62.8643 23.0596 62.8643C21.749 62.8643 20.75 63.1042 20.0625 63.584C19.375 64.0638 19.0313 64.7871 19.0313 65.7539C19.0313 66.7064 19.3786 67.4261 20.0732 67.9131C20.7607 68.3929 21.7598 68.6328 23.0703 68.6328C24.3594 68.6328 25.3512 68.3893 26.0459 67.9023C26.7406 67.4154 27.0879 66.6921 27.0879 65.7324ZM29.2256 65.8076C29.2256 67.555 28.6598 68.93 27.5283 69.9326C26.3968 70.9352 24.9072 71.4365 23.0596 71.4365C21.1546 71.4365 19.6543 70.9352 18.5586 69.9326C17.4557 68.93 16.9043 67.5156 16.9043 65.6895C16.9043 63.9277 17.4665 62.5492 18.5908 61.5537C19.708 60.5511 21.1976 60.0498 23.0596 60.0498C24.943 60.0498 26.4434 60.5547 27.5605 61.5645C28.6706 62.5742 29.2256 63.9886 29.2256 65.8076ZM29 57.6865H17.1943V54.8721H29V57.6865ZM15.4756 57.6865H13.0693V54.8613H15.4756V57.6865ZM29.2148 48.1582C29.2148 49.8984 28.9176 51.2913 28.3232 52.3369L26.207 52.0469C26.4648 51.5742 26.6976 50.9727 26.9053 50.2422C27.1058 49.5117 27.2061 48.8457 27.2061 48.2441C27.2061 47.6211 27.0915 47.1377 26.8623 46.7939C26.626 46.443 26.2822 46.264 25.8311 46.2568C25.4229 46.2568 25.1006 46.4215 24.8643 46.751C24.6279 47.0732 24.3343 47.6927 23.9834 48.6094C23.8688 48.9245 23.7936 49.1286 23.7578 49.2217C23.3353 50.3102 22.8662 51.0944 22.3506 51.5742C21.8278 52.054 21.1224 52.2939 20.2344 52.2939C19.1602 52.2939 18.3366 51.9072 17.7637 51.1338C17.1908 50.3532 16.9043 49.2682 16.9043 47.8789C16.9043 46.375 17.1872 45.0537 17.7529 43.915L19.6973 44.6133C19.1745 45.7376 18.9131 46.8083 18.9131 47.8252C18.9131 48.391 19.0098 48.835 19.2031 49.1572C19.3893 49.4723 19.6758 49.6299 20.0625 49.6299C20.4277 49.6299 20.7142 49.4759 20.9219 49.168C21.1224 48.86 21.3874 48.2585 21.7168 47.3633C21.724 47.3346 21.7562 47.2415 21.8135 47.084C21.8708 46.9264 21.9173 46.8047 21.9531 46.7188C22.347 45.6374 22.8197 44.8424 23.3711 44.334C23.9154 43.8255 24.6279 43.5713 25.5088 43.5713C26.6904 43.5785 27.6035 43.9795 28.248 44.7744C28.8926 45.5693 29.2148 46.6973 29.2148 48.1582ZM29.2256 35.8799C29.2256 37.7777 28.6813 39.2565 27.5928 40.3164C26.4971 41.3691 24.986 41.8955 23.0596 41.8955C21.1833 41.8955 19.6901 41.3978 18.5801 40.4023C17.4701 39.4069 16.9115 38.0498 16.9043 36.3311C16.9043 34.7054 17.4128 33.445 18.4297 32.5498C19.4466 31.6475 20.7965 31.1963 22.4795 31.1963C22.6012 31.1963 22.7982 31.1999 23.0703 31.207C23.3424 31.207 23.543 31.207 23.6719 31.207V39.0596C24.7747 39.0309 25.6305 38.7301 26.2393 38.1572C26.8408 37.5771 27.1416 36.7822 27.1416 35.7725C27.1416 34.4834 26.805 33.2445 26.1318 32.0557L28.1299 31.6582C28.8604 32.8398 29.2256 34.2471 29.2256 35.8799ZM21.8994 39.0059V33.8496C20.9398 33.8496 20.2021 34.068 19.6865 34.5049C19.1709 34.9417 18.9131 35.5469 18.9131 36.3203C18.9131 37.0436 19.1637 37.6559 19.665 38.1572C20.1663 38.6514 20.9111 38.9342 21.8994 39.0059Z" fill="#477099"/>
<defs>
<filter id="filter0_d_3_35" x="0" y="0" width="43" height="127" filterUnits="userSpaceOnUse" color-interpolation-filters="sRGB">
<feFlood flood-opacity="0" result="BackgroundImageFix"/>
<feColorMatrix in="SourceAlpha" type="matrix" values="0 0 0 0 0 0 0 0 0 0 0 0 0 0 0 0 0 0 127 0" result="hardAlpha"/>
<feOffset dy="6"/>
<feGaussianBlur stdDeviation="2.5"/>
<feComposite in2="hardAlpha" operator="out"/>
<feColorMatrix type="matrix" values="0 0 0 0 0.839216 0 0 0 0 0.886275 0 0 0 0 0.917647 0 0 0 1 0"/>
<feBlend mode="normal" in2="BackgroundImageFix" result="effect1_dropShadow_3_35"/>
<feBlend mode="normal" in="SourceGraphic" in2="effect1_dropShadow_3_35" result="shape"/>
</filter>
</defs>
</svg>
