<svg width="57" height="158" viewBox="0 0 57 158" fill="none" xmlns="http://www.w3.org/2000/svg">
<g filter="url(#filter0_d_3_38)">
<path d="M5 0H52V147H5V0Z" fill="#F8E8B4"/>
</g>
<path d="M37 105.378H21.2197V100.136C21.2197 98.8968 21.3809 97.8369 21.7031 96.9561C22.0182 96.0752 22.5339 95.3805 23.25 94.8721C23.9661 94.3564 24.8649 94.0986 25.9463 94.0986C26.6982 94.0986 27.3678 94.1953 27.9551 94.3887C28.5352 94.582 29.0651 94.9007 29.5449 95.3447C30.0176 95.7887 30.3828 96.4154 30.6406 97.2246C30.8984 98.0267 31.0273 98.9971 31.0273 100.136C31.0273 101.11 30.9987 101.901 30.9414 102.51H37V105.378ZM28.9219 100.447C28.9219 99.8529 28.8646 99.3372 28.75 98.9004C28.6354 98.4564 28.4886 98.1126 28.3096 97.8691C28.1305 97.6185 27.9085 97.4215 27.6436 97.2783C27.3786 97.1279 27.1243 97.0312 26.8809 96.9883C26.6302 96.9382 26.3509 96.9131 26.043 96.9131C25.1764 96.9131 24.5176 97.1924 24.0664 97.751C23.6152 98.3096 23.3896 99.0973 23.3896 100.114V102.51H28.9004C28.9147 102.424 28.9219 101.736 28.9219 100.447ZM37 91.9932H21.2197L21.2197 86.1602C21.2197 85.3652 21.2555 84.6777 21.3271 84.0977C21.3988 83.5104 21.5313 82.9554 21.7246 82.4326C21.9108 81.9027 22.165 81.4766 22.4873 81.1543C22.8096 80.8249 23.2321 80.5671 23.7549 80.3809C24.2705 80.1875 24.8828 80.0908 25.5918 80.0908C27.6829 80.0908 29.0579 81.0397 29.7168 82.9375C30.1536 82.5508 30.9629 82.071 32.1445 81.498L37 79.1562V82.3359L32.8857 84.1729C31.4105 84.8675 30.5368 85.2972 30.2646 85.4619C30.2575 85.5837 30.2539 85.9883 30.2539 86.6758L30.2324 89.1143H37V91.9932ZM28.1484 85.9023C28.1484 84.7852 27.9515 83.9831 27.5576 83.4961C27.1566 83.0091 26.5156 82.7656 25.6348 82.7656C24.8613 82.7656 24.292 83.0127 23.9268 83.5068C23.5615 84.001 23.3789 84.7565 23.3789 85.7734V89.1143H28.1377C28.1377 89.0068 28.1413 88.4733 28.1484 87.5137C28.1484 86.554 28.1484 86.0169 28.1484 85.9023ZM37.2256 71.7549C37.2256 73.6527 36.6813 75.1315 35.5928 76.1914C34.4971 77.2441 32.986 77.7705 31.0596 77.7705C29.1833 77.7705 27.6901 77.2728 26.5801 76.2773C25.4701 75.2819 24.9115 73.9248 24.9043 72.2061C24.9043 70.5804 25.4128 69.32 26.4297 68.4248C27.4466 67.5225 28.7965 67.0713 30.4795 67.0713C30.6012 67.0713 30.7982 67.0749 31.0703 67.082C31.3424 67.082 31.543 67.082 31.6719 67.082V74.9346C32.7747 74.9059 33.6305 74.6051 34.2393 74.0322C34.8408 73.4521 35.1416 72.6572 35.1416 71.6475C35.1416 70.3584 34.805 69.1195 34.1318 67.9307L36.1299 67.5332C36.8604 68.7148 37.2256 70.1221 37.2256 71.7549ZM29.8994 74.8809L29.8994 69.7246C28.9398 69.7246 28.2021 69.943 27.6865 70.3799C27.1709 70.8167 26.9131 71.4219 26.9131 72.1953C26.9131 72.9186 27.1637 73.5309 27.665 74.0322C28.1663 74.5264 28.9111 74.8092 29.8994 74.8809ZM37 64.5039H21.2627V61.5928H34.6797V55.0078L37 55.0938L37 64.5039ZM37.2256 46.8438C37.2256 48.9062 36.7135 50.471 35.6895 51.5381C34.6582 52.6051 33.208 53.1387 31.3389 53.1387H21.2627V50.2168H31.0918C32.4023 50.2168 33.3584 49.9518 33.96 49.4219C34.5615 48.8848 34.8623 48.0075 34.8623 46.79C34.8623 45.5941 34.5615 44.7275 33.96 44.1904C33.3512 43.6533 32.3916 43.3848 31.0811 43.3848H21.2627V40.4736H31.3604C33.2152 40.4736 34.6582 41.0179 35.6895 42.1064C36.7135 43.195 37.2256 44.7741 37.2256 46.8438Z" fill="#477099"/>
<defs>
<filter id="filter0_d_3_38" x="0" y="0" width="57" height="158" filterUnits="userSpaceOnUse" color-interpolation-filters="sRGB">
<feFlood flood-opacity="0" result="BackgroundImageFix"/>
<feColorMatrix in="SourceAlpha" type="matrix" values="0 0 0 0 0 0 0 0 0 0 0 0 0 0 0 0 0 0 127 0" result="hardAlpha"/>
<feOffset dy="6"/>
<feGaussianBlur stdDeviation="2.5"/>
<feComposite in2="hardAlpha" operator="out"/>
<feColorMatrix type="matrix" values="0 0 0 0 0.839216 0 0 0 0 0.886275 0 0 0 0 0.917647 0 0 0 1 0"/>
<feBlend mode="normal" in2="BackgroundImageFix" result="effect1_dropShadow_3_38"/>
<feBlend mode="normal" in="SourceGraphic" in2="effect1_dropShadow_3_38" result="shape"/>
</filter>
</defs>
</svg>
