<svg width="57" height="158" viewBox="0 0 57 158" fill="none" xmlns="http://www.w3.org/2000/svg">
<g filter="url(#filter0_d_3_40)">
<path d="M5 0H52V147H5V0Z" fill="#E2ECE9"/>
</g>
<path d="M37 100.378H21.2197V94.5449C21.2197 93.75 21.2555 93.0625 21.3271 92.4824C21.3988 91.8952 21.5312 91.3402 21.7246 90.8174C21.9108 90.2874 22.165 89.8613 22.4873 89.5391C22.8096 89.2096 23.2321 88.9518 23.7549 88.7656C24.2705 88.5723 24.8828 88.4756 25.5918 88.4756C27.6829 88.4756 29.0579 89.4245 29.7168 91.3223C30.1536 90.9355 30.9629 90.4557 32.1445 89.8828L37 87.541V90.7207L32.8857 92.5576C31.4105 93.2523 30.5368 93.682 30.2646 93.8467C30.2575 93.9684 30.2539 94.373 30.2539 95.0605L30.2324 97.499H37V100.378ZM28.1484 94.2871C28.1484 93.1699 27.9515 92.3678 27.5576 91.8809C27.1566 91.3939 26.5156 91.1504 25.6348 91.1504C24.8613 91.1504 24.292 91.3975 23.9268 91.8916C23.5615 92.3857 23.3789 93.1413 23.3789 94.1582V97.499H28.1377C28.1377 97.3916 28.1413 96.8581 28.1484 95.8984C28.1484 94.9388 28.1484 94.4017 28.1484 94.2871ZM37.2256 80.1396C37.2256 82.0374 36.6813 83.5163 35.5928 84.5762C34.4971 85.6289 32.986 86.1553 31.0596 86.1553C29.1833 86.1553 27.6901 85.6576 26.5801 84.6621C25.4701 83.6667 24.9115 82.3096 24.9043 80.5908C24.9043 78.9652 25.4128 77.7048 26.4297 76.8096C27.4466 75.9072 28.7965 75.4561 30.4795 75.4561C30.6012 75.4561 30.7982 75.4596 31.0703 75.4668C31.3424 75.4668 31.543 75.4668 31.6719 75.4668V83.3193C32.7747 83.2907 33.6305 82.9899 34.2393 82.417C34.8408 81.8369 35.1416 81.042 35.1416 80.0322C35.1416 78.7432 34.805 77.5042 34.1318 76.3154L36.1299 75.918C36.8604 77.0996 37.2256 78.5068 37.2256 80.1396ZM29.8994 83.2656L29.8994 78.1094C28.9398 78.1094 28.2021 78.3278 27.6865 78.7646C27.1709 79.2015 26.9131 79.8066 26.9131 80.5801C26.9131 81.3034 27.1637 81.9157 27.665 82.417C28.1663 82.9111 28.9111 83.194 29.8994 83.2656ZM37 72.8887H21.2627V69.9775H34.6797V63.3926L37 63.4785V72.8887ZM37.2256 55.2285C37.2256 57.291 36.7135 58.8558 35.6895 59.9229C34.6582 60.9899 33.208 61.5234 31.3389 61.5234H21.2627V58.6016H31.0918C32.4023 58.6016 33.3584 58.3366 33.96 57.8066C34.5615 57.2695 34.8623 56.3923 34.8623 55.1748C34.8623 53.9788 34.5615 53.1123 33.96 52.5752C33.3512 52.0381 32.3916 51.7695 31.0811 51.7695H21.2627V48.8584H31.3604C33.2152 48.8584 34.6582 49.4027 35.6895 50.4912C36.7135 51.5798 37.2256 53.1589 37.2256 55.2285Z" fill="#477099"/>
<defs>
<filter id="filter0_d_3_40" x="0" y="0" width="57" height="158" filterUnits="userSpaceOnUse" color-interpolation-filters="sRGB">
<feFlood flood-opacity="0" result="BackgroundImageFix"/>
<feColorMatrix in="SourceAlpha" type="matrix" values="0 0 0 0 0 0 0 0 0 0 0 0 0 0 0 0 0 0 127 0" result="hardAlpha"/>
<feOffset dy="6"/>
<feGaussianBlur stdDeviation="2.5"/>
<feComposite in2="hardAlpha" operator="out"/>
<feColorMatrix type="matrix" values="0 0 0 0 0.839216 0 0 0 0 0.886275 0 0 0 0 0.917647 0 0 0 1 0"/>
<feBlend mode="normal" in2="BackgroundImageFix" result="effect1_dropShadow_3_40"/>
<feBlend mode="normal" in="SourceGraphic" in2="effect1_dropShadow_3_40" result="shape"/>
</filter>
</defs>
</svg>
