<svg width="57" height="158" viewBox="0 0 57 158" fill="none" xmlns="http://www.w3.org/2000/svg">
<g filter="url(#filter0_d_3_42)">
<path d="M5 0H52V147H5V0Z" fill="#CFDED9"/>
</g>
<path d="M38.2148 110.888C38.2148 112.785 37.778 114.486 36.9043 115.99L34.5947 115.281C34.9671 114.608 35.2679 113.878 35.4971 113.09C35.7262 112.295 35.8408 111.521 35.8408 110.77C35.8408 109.846 35.6439 109.147 35.25 108.675C34.849 108.202 34.276 107.966 33.5312 107.966C32.543 107.966 31.859 108.625 31.4795 109.942C31.4508 110.035 31.3757 110.297 31.2539 110.727C31.125 111.156 31.0033 111.561 30.8887 111.94C30.7669 112.313 30.6738 112.581 30.6094 112.746C29.8646 114.859 28.4753 115.915 26.4414 115.915C25.0163 115.915 23.917 115.41 23.1436 114.4C22.3701 113.383 21.9834 112.037 21.9834 110.361C21.9834 108.464 22.3737 106.827 23.1543 105.452L25.2812 106.333C24.651 107.737 24.3359 109.04 24.3359 110.243C24.3359 111.11 24.4899 111.765 24.7979 112.209C25.0986 112.646 25.6035 112.879 26.3125 112.907C27.1862 112.907 27.7555 112.474 28.0205 111.607C28.085 111.436 28.2246 111.013 28.4395 110.34C28.6543 109.667 28.7939 109.23 28.8584 109.029C29.3311 107.59 29.9183 106.562 30.6201 105.946C31.3219 105.323 32.2995 105.012 33.5527 105.012C35.0495 105.012 36.2025 105.542 37.0117 106.602C37.8138 107.661 38.2148 109.09 38.2148 110.888ZM38 102.724H26.1943V99.9092H38V102.724ZM24.4756 102.724H22.0693V99.8984H24.4756V102.724ZM43.2852 94.6025L41.0078 94.7637V93.335C41.0078 91.6807 40.7858 90.5241 40.3418 89.8652C39.9049 89.2064 39.0993 88.877 37.9248 88.877C37.445 88.877 36.9258 88.8984 36.3672 88.9414C36.625 89.1276 36.8398 89.3066 37.0117 89.4785C37.1764 89.6432 37.3411 89.8545 37.5059 90.1123C37.6706 90.363 37.7959 90.6673 37.8818 91.0254C37.9606 91.3763 38 91.7773 38 92.2285C38 93.7897 37.4378 95.0752 36.3135 96.085C35.1891 97.0876 33.7389 97.5889 31.9629 97.5889C31.0176 97.5889 30.1582 97.4492 29.3848 97.1699C28.6042 96.8906 27.9632 96.5111 27.4619 96.0312C26.9606 95.5514 26.5775 95 26.3125 94.377C26.0404 93.7467 25.9043 93.0771 25.9043 92.3682C25.9043 90.7855 26.4808 89.6074 27.6338 88.834L26.1943 88.6406V86.127H37.1621C37.7493 86.127 38.2757 86.1556 38.7412 86.2129C39.2139 86.2702 39.665 86.3704 40.0947 86.5137C40.5316 86.6569 40.9111 86.8467 41.2334 87.083C41.5557 87.3122 41.8493 87.6022 42.1143 87.9531C42.3792 88.304 42.5941 88.7194 42.7588 89.1992C42.9307 89.6719 43.0596 90.2233 43.1455 90.8535C43.2386 91.4837 43.2852 92.1927 43.2852 92.9805V94.6025ZM36.0342 91.7773C36.0342 89.8366 34.7344 88.8555 32.1348 88.834H31.7266C30.5592 88.8483 29.6569 89.0918 29.0195 89.5645C28.3822 90.0371 28.0599 90.7282 28.0527 91.6377C28.0527 92.6689 28.4072 93.4495 29.1162 93.9795C29.818 94.5094 30.7669 94.7744 31.9629 94.7744C33.1159 94.7744 34.0827 94.5094 34.8633 93.9795C35.6439 93.4424 36.0342 92.7083 36.0342 91.7773ZM38 83.3447H26.1943V81.0674L27.6982 80.7451C27.5192 80.6019 27.3617 80.4658 27.2256 80.3369C27.0824 80.2008 26.9248 80.0182 26.7529 79.7891C26.5739 79.5527 26.4271 79.3057 26.3125 79.0479C26.1979 78.7829 26.1012 78.4606 26.0225 78.0811C25.9437 77.6943 25.9043 77.2826 25.9043 76.8457C25.9043 75.9076 26.0941 75.1592 26.4736 74.6006C26.8532 74.0348 27.2972 73.6374 27.8057 73.4082C27.1969 72.9857 26.7279 72.4378 26.3984 71.7646C26.069 71.0915 25.9043 70.3431 25.9043 69.5195C25.9043 68.166 26.2874 67.1742 27.0537 66.5439C27.82 65.9066 28.9551 65.5879 30.459 65.5879H38V68.4131H31.2969C30.1439 68.4131 29.3132 68.542 28.8047 68.7998C28.2891 69.0505 28.0313 69.5339 28.0313 70.25C28.0313 71.3457 28.5254 72.1335 29.5137 72.6133C29.9505 72.8138 30.4769 72.9499 31.0928 73.0215H38L38 75.8359H31.168C30.1152 75.8359 29.3311 75.9756 28.8154 76.2549C28.2998 76.5342 28.042 77.0391 28.042 77.7695C28.042 78.3639 28.1924 78.876 28.4932 79.3057C28.7939 79.7354 29.1878 80.0612 29.6748 80.2832C30.3981 80.4479 31.2646 80.5303 32.2744 80.5303H38V83.3447ZM36.0879 57.6602C36.0879 56.7077 35.7406 55.9915 35.0459 55.5117C34.3512 55.0319 33.3558 54.792 32.0596 54.792C30.749 54.792 29.75 55.0319 29.0625 55.5117C28.375 55.9915 28.0313 56.7148 28.0313 57.6816C28.0313 58.6341 28.3786 59.3538 29.0732 59.8408C29.7607 60.3206 30.7598 60.5605 32.0703 60.5605C33.3594 60.5605 34.3512 60.3171 35.0459 59.8301C35.7406 59.3431 36.0879 58.6198 36.0879 57.6602ZM38.2256 57.7354C38.2256 59.4827 37.6598 60.8577 36.5283 61.8604C35.3968 62.863 33.9072 63.3643 32.0596 63.3643C30.1546 63.3643 28.6543 62.863 27.5586 61.8604C26.4557 60.8577 25.9043 59.4434 25.9043 57.6172C25.9043 55.8555 26.4665 54.4769 27.5908 53.4814C28.708 52.4788 30.1976 51.9775 32.0596 51.9775C33.943 51.9775 35.4434 52.4824 36.5605 53.4922C37.6706 54.502 38.2256 55.9163 38.2256 57.7354ZM38 49.6143H26.1943V46.7998H38V49.6143ZM24.4756 49.6143H22.0693V46.7891H24.4756V49.6143ZM38.2256 39.4629C38.2256 41.0026 37.6598 42.2129 36.5283 43.0938C35.3968 43.9746 33.8857 44.415 31.9951 44.415C30.1618 44.415 28.6901 43.9782 27.5801 43.1045C26.4629 42.2236 25.9043 41.0133 25.9043 39.4736C25.9043 37.7979 26.4987 36.6126 27.6875 35.918C26.9857 35.9896 26.3089 36.0254 25.6572 36.0254H21.8438L21.6611 33.2109H38V35.6494L36.3887 35.9609C36.582 36.0827 36.7503 36.1973 36.8936 36.3047C37.0296 36.4049 37.1908 36.5553 37.377 36.7559C37.556 36.9564 37.7028 37.1748 37.8174 37.4111C37.9248 37.6403 38.0179 37.9339 38.0967 38.292C38.1826 38.6429 38.2256 39.0332 38.2256 39.4629ZM36.0879 38.7969C36.0879 36.9062 34.8024 35.9466 32.2314 35.918C30.7777 35.918 29.7178 36.1615 29.0518 36.6484C28.3857 37.1354 28.0527 37.8623 28.0527 38.8291C28.0527 39.6742 28.3929 40.3509 29.0732 40.8594C29.7464 41.3607 30.7419 41.6113 32.0596 41.6113C33.3701 41.6113 34.3691 41.3607 35.0566 40.8594C35.7441 40.3509 36.0879 39.6634 36.0879 38.7969Z" fill="#477099"/>
<defs>
<filter id="filter0_d_3_42" x="0" y="0" width="57" height="158" filterUnits="userSpaceOnUse" color-interpolation-filters="sRGB">
<feFlood flood-opacity="0" result="BackgroundImageFix"/>
<feColorMatrix in="SourceAlpha" type="matrix" values="0 0 0 0 0 0 0 0 0 0 0 0 0 0 0 0 0 0 127 0" result="hardAlpha"/>
<feOffset dy="6"/>
<feGaussianBlur stdDeviation="2.5"/>
<feComposite in2="hardAlpha" operator="out"/>
<feColorMatrix type="matrix" values="0 0 0 0 0.839216 0 0 0 0 0.886275 0 0 0 0 0.917647 0 0 0 1 0"/>
<feBlend mode="normal" in2="BackgroundImageFix" result="effect1_dropShadow_3_42"/>
<feBlend mode="normal" in="SourceGraphic" in2="effect1_dropShadow_3_42" result="shape"/>
</filter>
</defs>
</svg>
