<svg width="57" height="158" viewBox="0 0 57 158" fill="none" xmlns="http://www.w3.org/2000/svg">
<g filter="url(#filter0_d_3_41)">
<path d="M5 0H52V147H5V0Z" fill="#FBF4D8"/>
</g>
<path d="M37 97.2627H23.5938V101.85H21.2627V89.7754H23.5938V94.3408H37V97.2627ZM37.2256 85.2314C37.2256 86.3271 36.9248 87.2152 36.3232 87.8955C35.7145 88.5687 34.8408 88.9053 33.7021 88.9053C32.4775 88.9053 31.5716 88.5042 30.9844 87.7021C30.39 86.9001 30.014 85.6898 29.8564 84.0713C29.8278 83.8493 29.7992 83.6094 29.7705 83.3516C29.7419 83.0938 29.7132 82.8037 29.6846 82.4814C29.6559 82.1592 29.6309 81.9049 29.6094 81.7188H28.9863C28.2702 81.7188 27.751 81.8835 27.4287 82.2129C27.0993 82.5423 26.9346 83.0436 26.9346 83.7168C26.9346 84.6764 27.2031 85.8617 27.7402 87.2725C27.7188 87.2796 27.3929 87.3978 26.7627 87.627C26.1325 87.8561 25.8102 87.9743 25.7959 87.9814C25.2015 86.5921 24.9043 85.0882 24.9043 83.4697C24.9043 81.8799 25.2516 80.7233 25.9463 80C26.6338 79.2767 27.751 78.915 29.2979 78.915H37V80.999C36.9714 81.0062 36.7314 81.085 36.2803 81.2354C35.8291 81.3857 35.5892 81.4609 35.5605 81.4609C36.1335 82.0482 36.556 82.6247 36.8281 83.1904C37.0931 83.749 37.2256 84.4294 37.2256 85.2314ZM35.2275 84.4688C35.2275 83.8171 35.0736 83.2513 34.7656 82.7715C34.4505 82.2845 34.071 81.9372 33.627 81.7295H31.3496C31.3496 81.751 31.3639 81.9408 31.3926 82.2988C31.4212 82.6497 31.4355 82.8395 31.4355 82.8682C31.5358 84.0068 31.7507 84.8411 32.0801 85.3711C32.4095 85.901 32.9395 86.166 33.6699 86.166C34.1712 86.166 34.5579 86.0192 34.8301 85.7256C35.0951 85.432 35.2275 85.013 35.2275 84.4688ZM37 76.0791H25.1943V73.8125L26.6875 73.501C25.4987 72.2979 24.9043 70.9622 24.9043 69.4941C24.9043 68.1191 25.3018 67.0915 26.0967 66.4111C26.8844 65.7236 28.0303 65.3799 29.5342 65.3799H37V68.2051H29.8779C28.9255 68.2122 28.2129 68.3662 27.7402 68.667C27.2676 68.9678 27.0313 69.5085 27.0313 70.2891C27.0313 70.8978 27.1888 71.4564 27.5039 71.9648C27.8118 72.4661 28.2021 72.8314 28.6748 73.0605C29.2334 73.1966 30.0928 73.2646 31.2529 73.2646H37V76.0791ZM37 62.6084H20.8438L20.6611 59.7939H24.0664C24.2311 59.7939 24.6895 59.8047 25.4414 59.8262C26.1862 59.8477 26.5658 59.8584 26.5801 59.8584C25.4629 58.9202 24.9043 57.6598 24.9043 56.0771C24.9043 54.7594 25.2839 53.7389 26.043 53.0156C26.7949 52.2852 27.9551 51.9199 29.5234 51.9199H37V54.7344H29.835C28.8682 54.7344 28.1592 54.8883 27.708 55.1963C27.2568 55.5042 27.0313 56.027 27.0313 56.7646C27.0313 57.3949 27.1924 57.9535 27.5146 58.4404C27.8298 58.9274 28.238 59.2926 28.7393 59.5361C29.3981 59.708 30.2575 59.7939 31.3174 59.7939H37V62.6084Z" fill="#477099"/>
<defs>
<filter id="filter0_d_3_41" x="0" y="0" width="57" height="158" filterUnits="userSpaceOnUse" color-interpolation-filters="sRGB">
<feFlood flood-opacity="0" result="BackgroundImageFix"/>
<feColorMatrix in="SourceAlpha" type="matrix" values="0 0 0 0 0 0 0 0 0 0 0 0 0 0 0 0 0 0 127 0" result="hardAlpha"/>
<feOffset dy="6"/>
<feGaussianBlur stdDeviation="2.5"/>
<feComposite in2="hardAlpha" operator="out"/>
<feColorMatrix type="matrix" values="0 0 0 0 0.839216 0 0 0 0 0.886275 0 0 0 0 0.917647 0 0 0 1 0"/>
<feBlend mode="normal" in2="BackgroundImageFix" result="effect1_dropShadow_3_41"/>
<feBlend mode="normal" in="SourceGraphic" in2="effect1_dropShadow_3_41" result="shape"/>
</filter>
</defs>
</svg>
